# xmcd
# 
# Track frame offsets:
#     187
#     34109
#     57264
#     85512
#     115782
#     143987
#     164397
#     191872
#     226464
# 
# Disc length: 3347
# 
# Revision: 1
# Processed by: cddbd v1.5.2PL0 Copyright (c) Steve Scherf et al.
# Submitted via: fre:ac v1.0.17
# 
DISCID=740d1109
DTITLE=Ray Anderson/Alligatory Band - Heads And Tales
DYEAR=1995
DGENRE=Jazz
TTITLE0=1The Four Reasons: 1. Hunting And Gathering
TTITLE1=2The Four Reasons: 2. Heads And Tales
TTITLE2=3The Four Reasons: 3. Matters Of The Heart
TTITLE3=4The Four Reasons: 4. Unsung Songs
TTITLE4=5Cheek To Cheek
TTITLE5=6Tapajack
TTITLE6=7Tough Guy
TTITLE7=8Road Song
TTITLE8=9Drink And Blather
EXTD=YEAR: 1995
EXTT0=
EXTT1=
EXTT2=
EXTT3=
EXTT4=
EXTT5=
EXTT6=
EXTT7=
EXTT8=
PLAYORDER=
